<svg width="1584" height="396" viewBox="0 0 1584 396" fill="none" xmlns="http://www.w3.org/2000/svg">
<rect width="1584" height="396" fill="#F5F5F5"/>
<g id="Awesome banner" clip-path="url(#clip0_0_1)">
<rect width="1584" height="396" fill="url(#paint0_linear_0_1)"/>
<ellipse id="Ellipse 2" cx="323" cy="64" rx="285" ry="288" fill="url(#paint1_linear_0_1)" fill-opacity="0.1"/>
<g id="copyright">
<path d="M75.95 334.52L72.30 334.52L72.30 311.16L77.20 311.16L83.70 330.04Q83.60 329.02 83.50 327.62Q83.41 326.23 83.33 324.79Q83.25 323.35 83.25 322.23L83.25 311.16L86.90 311.16L86.90 334.52L82 334.52L75.57 315.64Q75.63 316.57 75.73 317.88Q75.82 319.19 75.89 320.57Q75.95 321.94 75.95 323.10L75.95 334.52M98.80 334.84Q96.46 334.84 94.67 333.96Q92.88 333.08 91.89 331.53Q90.90 329.98 90.90 327.93Q90.90 325.78 92.13 324.18Q93.36 322.58 95.34 322.17L95.34 322.10Q93.65 321.75 92.61 320.38Q91.57 319 91.57 317.11Q91.57 315.26 92.48 313.85Q93.39 312.44 95.02 311.64Q96.66 310.84 98.80 310.84Q100.94 310.84 102.59 311.64Q104.24 312.44 105.15 313.85Q106.06 315.26 106.06 317.11Q106.06 319 105.01 320.38Q103.95 321.75 102.26 322.10L102.26 322.17Q104.24 322.58 105.47 324.18Q106.70 325.78 106.70 327.93Q106.70 329.98 105.71 331.53Q104.72 333.08 102.93 333.96Q101.14 334.84 98.80 334.84M98.80 320.73Q100.30 320.73 101.23 319.82Q102.16 318.90 102.16 317.46Q102.16 315.99 101.23 315.08Q100.30 314.17 98.80 314.17Q97.30 314.17 96.37 315.08Q95.44 315.99 95.44 317.46Q95.44 318.90 96.37 319.82Q97.30 320.73 98.80 320.73M98.80 331.45Q100.56 331.45 101.68 330.42Q102.80 329.40 102.80 327.74Q102.80 326.04 101.68 325Q100.56 323.96 98.80 323.96Q97.04 323.96 95.92 325Q94.80 326.04 94.80 327.74Q94.80 329.40 95.92 330.42Q97.04 331.45 98.80 331.45M114.35 334.52L110.70 334.52L110.70 311.16L115.60 311.16L122.10 330.04Q122 329.02 121.90 327.62Q121.81 326.23 121.73 324.79Q121.65 323.35 121.65 322.23L121.65 311.16L125.30 311.16L125.30 334.52L120.40 334.52L113.97 315.64Q114.03 316.57 114.13 317.88Q114.22 319.19 114.29 320.57Q114.35 321.94 114.35 323.10" fill="white" fill-opacity="0.9"/>
<path d="M161.48 325.24L151.24 325.24L151.24 322.68L161.48 322.68" fill="white" fill-opacity="0.9"/>
<path d="M195.02 334.84Q191.82 334.84 189.96 333.05Q188.11 331.26 188.11 328.12L188.11 317.56Q188.11 314.42 189.96 312.63Q191.82 310.84 195.02 310.84Q198.15 310.84 200.01 312.65Q201.87 314.46 201.87 317.56L198.99 317.56Q198.99 315.58 197.95 314.50Q196.91 313.43 195.02 313.43Q193.13 313.43 192.06 314.50Q190.99 315.58 190.99 317.56L190.99 328.12Q190.99 330.10 192.06 331.18Q193.13 332.25 195.02 332.25Q196.91 332.25 197.95 331.18Q198.99 330.10 198.99 328.12L201.87 328.12Q201.87 331.22 200.01 333.03Q198.15 334.84 195.02 334.84" fill="white" fill-opacity="0.9"/>
<path d="M213.96 334.84Q210.83 334.84 209 333.02Q207.18 331.19 207.18 327.80L207.18 317.88Q207.18 314.49 209 312.66Q210.83 310.84 213.96 310.84Q217.10 310.84 218.92 312.66Q220.75 314.49 220.75 317.85L220.75 327.80Q220.75 331.19 218.92 333.02Q217.10 334.84 213.96 334.84M213.96 332.25Q215.85 332.25 216.86 331.18Q217.87 330.10 217.87 328.12L217.87 317.56Q217.87 315.58 216.86 314.50Q215.85 313.43 213.96 313.43Q212.11 313.43 211.08 314.50Q210.06 315.58 210.06 317.56L210.06 328.12Q210.06 330.10 211.08 331.18Q212.11 332.25 213.96 332.25" fill="white" fill-opacity="0.9"/>
<path d="M228.65 334.52L225.87 334.52L225.87 311.16L230.12 311.16L233.10 321.27L236.20 311.16L240.46 311.16L240.46 334.52L237.67 334.52L237.67 323.48Q237.67 321.91 237.72 319.88Q237.77 317.85 237.87 315.77Q237.96 313.69 238.09 312.02L234.31 324.09L231.82 324.09L228.20 312.31Q228.46 314.68 228.55 317.50Q228.65 320.31 228.65 323.48" fill="white" fill-opacity="0.9"/>
<path d="M247.85 334.52L245.07 334.52L245.07 311.16L249.32 311.16L252.30 321.27L255.40 311.16L259.66 311.16L259.66 334.52L256.87 334.52L256.87 323.48Q256.87 321.91 256.92 319.88Q256.97 317.85 257.07 315.77Q257.16 313.69 257.29 312.02L253.51 324.09L251.02 324.09L247.40 312.31Q247.66 314.68 247.75 317.50Q247.85 320.31 247.85 323.48" fill="white" fill-opacity="0.9"/>
<path d="M271.56 334.84Q268.30 334.84 266.57 333.03Q264.84 331.22 264.84 328.12L264.84 311.16L267.72 311.16L267.72 328.12Q267.72 330.04 268.67 331.16Q269.61 332.28 271.56 332.28Q273.48 332.28 274.44 331.16Q275.40 330.04 275.40 328.12L275.40 311.16L278.28 311.16L278.28 328.12Q278.28 331.26 276.57 333.05Q274.86 334.84 271.56 334.84" fill="white" fill-opacity="0.9"/>
<path d="M286.83 334.52L284.04 334.52L284.04 311.16L287.88 311.16L295.02 331.16Q294.95 330.36 294.87 329.19Q294.79 328.02 294.75 326.73Q294.70 325.43 294.70 324.28L294.70 311.16L297.48 311.16L297.48 334.52L293.64 334.52L286.54 314.52Q286.60 315.29 286.67 316.46Q286.73 317.62 286.78 318.92Q286.83 320.22 286.83 321.40" fill="white" fill-opacity="0.9"/>
<path d="M316.20 334.52L303.72 334.52L303.72 331.90L308.49 331.90L308.49 313.78L303.72 313.78L303.72 311.16L316.20 311.16L316.20 313.78L311.43 313.78L311.43 331.90L316.20 331.90" fill="white" fill-opacity="0.9"/>
<path d="M330.60 334.52L327.72 334.52L327.72 313.78L321.32 313.78L321.32 311.16L337 311.16L337 313.78L330.60 313.78" fill="white" fill-opacity="0.9"/>
<path d="M349.80 334.52L346.92 334.52L346.92 325.78L339.88 311.16L342.95 311.16L347.50 320.76Q347.88 321.56 348.11 322.12Q348.33 322.68 348.39 322.94Q348.46 322.68 348.70 322.12Q348.94 321.56 349.32 320.76L353.87 311.16L356.84 311.16L349.80 325.78" fill="white" fill-opacity="0.9"/>
<path d="M382.83 334.52L380.04 334.52L380.04 311.16L383.88 311.16L391.02 331.16Q390.95 330.36 390.87 329.19Q390.79 328.02 390.75 326.73Q390.70 325.43 390.70 324.28L390.70 311.16L393.48 311.16L393.48 334.52L389.64 334.52L382.54 314.52Q382.60 315.29 382.67 316.46Q382.73 317.62 382.78 318.92Q382.83 320.22 382.83 321.40" fill="white" fill-opacity="0.9"/>
<path d="M405.96 334.84Q402.83 334.84 401 333.02Q399.18 331.19 399.18 327.80L399.18 317.88Q399.18 314.49 401 312.66Q402.83 310.84 405.96 310.84Q409.10 310.84 410.92 312.66Q412.75 314.49 412.75 317.85L412.75 327.80Q412.75 331.19 410.92 333.02Q409.10 334.84 405.96 334.84M405.96 332.25Q407.85 332.25 408.86 331.18Q409.87 330.10 409.87 328.12L409.87 317.56Q409.87 315.58 408.86 314.50Q407.85 313.43 405.96 313.43Q404.11 313.43 403.08 314.50Q402.06 315.58 402.06 317.56L402.06 328.12Q402.06 330.10 403.08 331.18Q404.11 332.25 405.96 332.25" fill="white" fill-opacity="0.9"/>
<path d="M424.55 334.52L418.51 334.52L418.51 311.16L424.55 311.16Q426.83 311.16 428.47 312.02Q430.12 312.89 431.03 314.46Q431.95 316.02 431.95 318.17L431.95 327.48Q431.95 329.62 431.03 331.21Q430.12 332.79 428.47 333.66Q426.83 334.52 424.55 334.52M421.39 313.72L421.39 331.96L424.55 331.96Q426.67 331.96 427.87 330.78Q429.07 329.59 429.07 327.48L429.07 318.17Q429.07 316.09 427.87 314.90Q426.67 313.72 424.55 313.72" fill="white" fill-opacity="0.9"/>
<path d="M451.40 334.52L437.96 334.52L437.96 311.16L451.40 311.16L451.40 313.78L440.81 313.78L440.81 321.02L450.28 321.02L450.28 323.58L440.81 323.58L440.81 331.90L451.40 331.90" fill="white" fill-opacity="0.9"/>
<path d="M463.69 334.84Q460.30 334.84 458.28 333.05Q456.27 331.26 456.27 328.12L459.15 328.12Q459.15 330.07 460.39 331.18Q461.64 332.28 463.69 332.28Q465.67 332.28 466.86 331.13Q468.04 329.98 468.04 328.12Q468.04 326.71 467.29 325.67Q466.54 324.63 465.13 324.25L461.58 323.26Q459.37 322.62 458.11 320.97Q456.84 319.32 456.84 317.08Q456.84 315.22 457.67 313.82Q458.51 312.41 460.01 311.62Q461.51 310.84 463.47 310.84Q465.45 310.84 466.97 311.62Q468.49 312.41 469.35 313.80Q470.22 315.19 470.22 317.02L467.34 317.02Q467.34 315.42 466.25 314.41Q465.16 313.40 463.47 313.40Q461.77 313.40 460.71 314.41Q459.66 315.42 459.66 317.02Q459.66 318.30 460.35 319.21Q461.03 320.12 462.28 320.47L465.93 321.50Q468.27 322.14 469.56 323.91Q470.86 325.69 470.86 328.12Q470.86 331.19 468.91 333.02Q466.95 334.84 463.69 334.84" fill="white" fill-opacity="0.9"/>
</g>
<path d="M81.88 197.64L72.52 197.64L72.52 195.67L76.10 195.67L76.10 182.09L72.52 182.09L72.52 180.12L81.88 180.12L81.88 182.09L78.30 182.09L78.30 195.67L81.88 195.67" fill="white" fill-opacity="0.7"/>
<path d="M96.88 197.64L86.80 197.64L86.80 180.12L96.88 180.12L96.88 182.09L88.94 182.09L88.94 187.51L96.04 187.51L96.04 189.43L88.94 189.43L88.94 195.67L96.88 195.67" fill="white" fill-opacity="0.7"/>
<path d="M106.19 197.88Q103.79 197.88 102.40 196.54Q101.01 195.19 101.01 192.84L101.01 184.92Q101.01 182.57 102.40 181.22Q103.79 179.88 106.19 179.88Q108.54 179.88 109.94 181.24Q111.33 182.59 111.33 184.92L109.17 184.92Q109.17 183.43 108.39 182.63Q107.61 181.82 106.19 181.82Q104.78 181.82 103.97 182.63Q103.17 183.43 103.17 184.92L103.17 192.84Q103.17 194.33 103.97 195.13Q104.78 195.94 106.19 195.94Q107.61 195.94 108.39 195.13Q109.17 194.33 109.17 192.84L111.33 192.84Q111.33 195.17 109.94 196.52Q108.54 197.88 106.19 197.88" fill="white" fill-opacity="0.7"/>
<path d="M140.92 197.64L129.64 197.64L129.64 195.67L134.32 195.67L134.32 186.41L130.12 186.41L130.12 184.44L136.48 184.44L136.48 195.67L140.92 195.67L140.92 197.64M135.16 182.06Q134.37 182.06 133.91 181.66Q133.46 181.25 133.46 180.55Q133.46 179.83 133.91 179.41Q134.37 178.99 135.16 178.99Q135.95 178.99 136.41 179.41Q136.86 179.83 136.86 180.55Q136.86 181.25 136.41 181.66Q135.95 182.06 135.16 182.06" fill="white" fill-opacity="0.7"/>
<path d="M149.73 197.83L148.67 197.83Q146.46 197.83 145.25 196.84Q144.04 195.84 144.04 194.02L146.20 194.02Q146.20 194.93 146.85 195.44Q147.50 195.96 148.67 195.96L149.73 195.96Q150.93 195.96 151.59 195.43Q152.25 194.90 152.25 193.94Q152.25 192.24 150.69 192.02L147.04 191.50Q145.70 191.30 144.95 190.38Q144.21 189.46 144.21 187.94Q144.21 186.22 145.40 185.23Q146.58 184.25 148.67 184.25L149.73 184.25Q151.65 184.25 152.86 185.20Q154.07 186.14 154.17 187.68L151.98 187.68Q151.94 186.98 151.32 186.53Q150.71 186.07 149.73 186.07L148.67 186.07Q147.57 186.07 146.94 186.58Q146.32 187.08 146.32 187.94Q146.32 189.34 147.59 189.53LNaN 190.01Q154.36 190.49 154.36 193.94Q154.36 195.79 153.15 196.81Q151.94 197.83 149.73 197.83" fill="white" fill-opacity="0.7"/>
<path d="M176.85 197.88Q174.81 197.88 173.61 196.74Q172.41 195.60 172.41 193.75Q172.41 192.53 172.96 191.62Q173.51 190.70 174.50 190.19Q175.48 189.67 176.75 189.67L180.83 189.67L180.83 188.64Q180.83 186.07 178.02 186.07Q176.78 186.07 176.01 186.53Q175.24 186.98 175.19 187.80L173.03 187.80Q173.15 186.24 174.48 185.22Q175.82 184.20 178.02 184.20Q180.42 184.20 181.71 185.35Q182.99 186.50 182.99 188.57L182.99 197.64L180.86 197.64L180.86 195.24L180.81 195.24Q180.62 196.46 179.58 197.17Q178.55 197.88 176.85 197.88M177.38 196.06Q178.96 196.06 179.90 195.29Q180.83 194.52 180.83 193.20L180.83 191.35L176.99 191.35Q175.94 191.35 175.28 191.99Q174.62 192.62 174.62 193.68Q174.62 194.78 175.35 195.42Q176.08 196.06 177.38 196.06" fill="white" fill-opacity="0.7"/>
<path d="M203.06 197.64L201.04 197.64L201.04 184.44L202.91 184.44L202.91 186.19L202.96 186.19Q203.08 185.30 203.67 184.75Q204.26 184.20 205.17 184.20Q206.03 184.20 206.63 184.70Q207.23 185.21 207.50 186.07L207.52 186.07Q207.69 185.21 208.28 184.70Q208.86 184.20 209.78 184.20Q211.05 184.20 211.80 185.15Q212.56 186.10 212.56 187.61L212.56 197.64L210.54 197.64L210.54 187.58Q210.54 186.79 210.16 186.32Q209.78 185.86 209.10 185.86Q208.46 185.86 208.07 186.31Q207.69 186.77 207.69 187.56L207.69 197.64L205.91 197.64L205.91 187.58Q205.91 186.79 205.53 186.32Q205.14 185.86 204.50 185.86Q203.82 185.86 203.44 186.31Q203.06 186.77 203.06 187.56" fill="white" fill-opacity="0.7"/>
<path d="M220.05 197.88Q218.01 197.88 216.81 196.74Q215.61 195.60 215.61 193.75Q215.61 192.53 216.16 191.62Q216.71 190.70 217.70 190.19Q218.68 189.67 219.95 189.67L224.03 189.67L224.03 188.64Q224.03 186.07 221.22 186.07Q219.98 186.07 219.21 186.53Q218.44 186.98 218.39 187.80L216.23 187.80Q216.35 186.24 217.68 185.22Q219.02 184.20 221.22 184.20Q223.62 184.20 224.91 185.35Q226.19 186.50 226.19 188.57L226.19 197.64L224.06 197.64L224.06 195.24L224.01 195.24Q223.82 196.46 222.78 197.17Q221.75 197.88 220.05 197.88M220.58 196.06Q222.16 196.06 223.10 195.29Q224.03 194.52 224.03 193.20L224.03 191.35L220.19 191.35Q219.14 191.35 218.48 191.99Q217.82 192.62 217.82 193.68Q217.82 194.78 218.55 195.42Q219.28 196.06 220.58 196.06" fill="white" fill-opacity="0.7"/>
<path d="M232.77 197.64L230.61 197.64L230.61 184.44L232.77 184.44L232.77 186.96L232.79 186.96Q232.96 185.64 233.87 184.92Q234.78 184.20 236.30 184.20Q238.29 184.20 239.46 185.42Q240.64 186.65 240.64 188.76L240.64 197.64L238.48 197.64L238.48 189.14Q238.48 187.63 237.72 186.83Q236.97 186.02 235.67 186.02Q234.33 186.02 233.55 186.86Q232.77 187.70 232.77 189.24" fill="white" fill-opacity="0.7"/>
<path d="M249.23 197.88Q247.26 197.88 246.08 196.56Q244.89 195.24 244.89 192.98L244.89 189.12Q244.89 186.84 246.06 185.52Q247.24 184.20 249.23 184.20Q250.72 184.20 251.69 184.94Q252.66 185.69 252.86 186.96L252.88 186.96L252.83 183.96L252.83 180.12L254.99 180.12L254.99 197.64L252.83 197.64L252.83 195.12L252.81 195.12Q252.64 196.42 251.68 197.15Q250.72 197.88 249.23 197.88M249.95 196.01Q251.30 196.01 252.06 195.17Q252.83 194.33 252.83 192.84L252.83 189.24Q252.83 187.75 252.06 186.91Q251.30 186.07 249.95 186.07Q248.58 186.07 247.82 186.78Q247.05 187.49 247.05 189.12L247.05 192.96Q247.05 194.57 247.82 195.29Q248.58 196.01 249.95 196.01" fill="white" fill-opacity="0.7"/>
<path d="M263.25 197.88Q261.21 197.88 260.01 196.74Q258.81 195.60 258.81 193.75Q258.81 192.53 259.36 191.62Q259.91 190.70 260.90 190.19Q261.88 189.67 263.15 189.67L267.23 189.67L267.23 188.64Q267.23 186.07 264.42 186.07Q263.18 186.07 262.41 186.53Q261.64 186.98 261.59 187.80L259.43 187.80Q259.55 186.24 260.88 185.22Q262.22 184.20 264.42 184.20Q266.82 184.20 268.11 185.35Q269.39 186.50 269.39 188.57L269.39 197.64L267.26 197.64L267.26 195.24L267.21 195.24Q267.02 196.46 265.98 197.17Q264.95 197.88 263.25 197.88M263.78 196.06Q265.36 196.06 266.30 195.29Q267.23 194.52 267.23 193.20L267.23 191.35L263.39 191.35Q262.34 191.35 261.68 191.99Q261.02 192.62 261.02 193.68Q261.02 194.78 261.75 195.42Q262.48 196.06 263.78 196.06" fill="white" fill-opacity="0.7"/>
<path d="M283.96 197.64L280.12 197.64Q278.49 197.64 277.50 196.69Q276.52 195.74 276.52 194.16L276.52 186.41L272.73 186.41L272.73 184.44L276.52 184.44L276.52 180.72L278.68 180.72L278.68 184.44L284.08 184.44L284.08 186.41L278.68 186.41L278.68 194.16Q278.68 194.83 279.08 195.25Q279.47 195.67 280.12 195.67L283.96 195.67" fill="white" fill-opacity="0.7"/>
<path d="M293.20 197.83Q290.82 197.83 289.42 196.44Q288.02 195.05 288.02 192.55L288.02 189.53Q288.02 187.01 289.41 185.63Q290.80 184.25 293.20 184.25Q295.60 184.25 296.99 185.63Q298.38 187.01 298.38 189.53L298.38 192.55Q298.38 195.05 296.98 196.44Q295.58 197.83 293.20 197.83M293.20 195.91Q294.62 195.91 295.42 195.12Q296.22 194.33 296.22 192.79L296.22 189.29Q296.22 187.75 295.42 186.96Q294.62 186.17 293.20 186.17Q291.81 186.17 290.99 186.96Q290.18 187.75 290.18 189.29L290.18 192.79Q290.18 194.33 290.99 195.12Q291.81 195.91 293.20 195.91" fill="white" fill-opacity="0.7"/>
<path d="M305.25 197.64L303.09 197.64L303.09 184.44L305.25 184.44L305.25 186.96L305.30 186.96Q305.46 185.69 306.38 184.94Q307.29 184.20 308.82 184.20Q310.89 184.20 312 185.44Q313.12 186.67 313.12 188.95L313.12 190.08L310.96 190.08L310.96 188.95Q310.96 186.07 308.15 186.07Q306.74 186.07 305.99 186.89Q305.25 187.70 305.25 189.24" fill="white" fill-opacity="0.7"/>
<path d="M321.33 201.96L319.07 201.96L321.02 196.82L316.10 184.44L318.42 184.44L321.54 192.60Q321.74 193.08 321.90 193.61Q322.07 194.14 322.14 194.52Q322.22 194.14 322.38 193.61Q322.55 193.08 322.72 192.60L325.62 184.44L327.90 184.44" fill="white" fill-opacity="0.7"/>
<path d="M350.34 197.64L345.81 197.64L345.81 180.12L350.34 180.12Q352.05 180.12 353.28 180.77Q354.52 181.42 355.20 182.59Q355.89 183.77 355.89 185.38L355.89 192.36Q355.89 193.97 355.20 195.16Q354.52 196.34 353.28 196.99Q352.05 197.64 350.34 197.64M347.97 182.04L347.97 195.72L350.34 195.72Q351.93 195.72 352.83 194.83Q353.73 193.94 353.73 192.36L353.73 185.38Q353.73 183.82 352.83 182.93Q351.93 182.04 350.34 182.04" fill="white" fill-opacity="0.7"/>
<path d="M365.30 197.88Q362.90 197.88 361.50 196.54Q360.11 195.19 360.11 192.84L360.11 184.92Q360.11 182.57 361.50 181.22Q362.90 179.88 365.30 179.88Q367.65 179.88 369.04 181.24Q370.43 182.59 370.43 184.92L368.27 184.92Q368.27 183.43 367.49 182.63Q366.71 181.82 365.30 181.82Q363.88 181.82 363.08 182.62Q362.27 183.41 362.27 184.90L362.27 192.84Q362.27 194.33 363.08 195.14Q363.88 195.96 365.30 195.96Q366.71 195.96 367.49 195.14Q368.27 194.33 368.27 192.84L368.27 190.44L364.72 190.44L364.72 188.47L370.43 188.47L370.43 192.84Q370.43 195.17 369.04 196.52Q367.65 197.88 365.30 197.88" fill="white" fill-opacity="0.7"/>
<path d="M376.84 197.64L374.68 197.64L374.68 180.12L385 180.12L385 182.09L376.79 182.09L376.79 187.90L384.38 187.90L384.38 189.86L376.84 189.86" fill="white" fill-opacity="0.7"/>
<path d="M395.08 197.64L392.92 197.64L392.92 182.09L388.12 182.09L388.12 180.12L399.88 180.12L399.88 182.09L395.08 182.09" fill="white" fill-opacity="0.7"/>
<path d="M412.24 190.68L404.56 190.68L404.56 188.76L412.24 188.76" fill="white" fill-opacity="0.7"/>
<path d="M428.92 197.64L417.64 197.64L417.64 195.67L422.32 195.67L422.32 186.41L418.12 186.41L418.12 184.44L424.48 184.44L424.48 195.67L428.92 195.67L428.92 197.64M423.16 182.06Q422.37 182.06 421.91 181.66Q421.46 181.25 421.46 180.55Q421.46 179.83 421.91 179.41Q422.37 178.99 423.16 178.99Q423.95 178.99 424.41 179.41Q424.86 179.83 424.86 180.55Q424.86 181.25 424.41 181.66Q423.95 182.06 423.16 182.06" fill="white" fill-opacity="0.7"/>
<path d="M437.73 197.83L436.67 197.83Q434.46 197.83 433.25 196.84Q432.04 195.84 432.04 194.02L434.20 194.02Q434.20 194.93 434.85 195.44Q435.50 195.96 436.67 195.96L437.73 195.96Q438.93 195.96 439.59 195.43Q440.25 194.90 440.25 193.94Q440.25 192.24 438.69 192.02L435.04 191.50Q433.70 191.30 432.95 190.38Q432.21 189.46 432.21 187.94Q432.21 186.22 433.40 185.23Q434.58 184.25 436.67 184.25L437.73 184.25Q439.65 184.25 440.86 185.20Q442.07 186.14 442.17 187.68L439.98 187.68Q439.94 186.98 439.32 186.53Q438.71 186.07 437.73 186.07L436.67 186.07Q435.57 186.07 434.94 186.58Q434.32 187.08 434.32 187.94Q434.32 189.34 435.59 189.53L439 190.01Q442.36 190.49 442.36 193.94Q442.36 195.79 441.15 196.81Q439.94 197.83 437.73 197.83" fill="white" fill-opacity="0.7"/>
<path d="M452.13 197.83L451.07 197.83Q448.86 197.83 447.65 196.84Q446.44 195.84 446.44 194.02L448.60 194.02Q448.60 194.93 449.25 195.44Q449.90 195.96 451.07 195.96L452.13 195.96Q453.33 195.96 453.99 195.43Q454.65 194.90 454.65 193.94Q454.65 192.24 453.09 192.02L449.44 191.50Q448.10 191.30 447.35 190.38Q446.61 189.46 446.61 187.94Q446.61 186.22 447.80 185.23Q448.98 184.25 451.07 184.25L452.13 184.25Q454.05 184.25 455.26 185.20Q456.47 186.14 456.57 187.68L454.38 187.68Q454.34 186.98 453.72 186.53Q453.11 186.07 452.13 186.07L451.07 186.07Q449.97 186.07 449.34 186.58Q448.72 187.08 448.72 187.94Q448.72 189.34 449.99 189.53L453.40 190.01Q456.76 190.49 456.76 193.94Q456.76 195.79 455.55 196.81Q454.34 197.83 452.13 197.83" fill="white" fill-opacity="0.7"/>
<path d="M465.98 197.88Q463.70 197.88 462.33 196.52Q460.96 195.17 460.96 192.84L460.96 184.44L463.12 184.44L463.12 192.84Q463.12 194.28 463.89 195.13Q464.66 195.98 465.98 195.98Q467.32 195.98 468.10 195.13Q468.88 194.28 468.88 192.84L468.88 184.44L471.04 184.44L471.04 192.84Q471.04 195.17 469.65 196.52Q468.26 197.88 465.98 197.88" fill="white" fill-opacity="0.7"/>
<path d="M480.40 197.88Q478.07 197.88 476.64 196.48Q475.22 195.07 475.22 192.60L475.22 189.48Q475.22 187.01 476.64 185.60Q478.07 184.20 480.40 184.20Q481.96 184.20 483.12 184.82Q484.29 185.45 484.94 186.58Q485.58 187.70 485.58 189.24L485.58 191.59L477.33 191.59L477.33 192.84Q477.33 194.30 478.17 195.16Q479.01 196.01 480.40 196.01Q481.60 196.01 482.38 195.54Q483.16 195.07 483.33 194.28L485.49 194.28Q485.27 195.94 483.88 196.91Q482.49 197.88 480.40 197.88M477.33 189.24L477.33 189.91L483.47 189.91L483.47 189.24Q483.47 187.68 482.67 186.83Q481.86 185.98 480.40 185.98Q478.94 185.98 478.13 186.83Q477.33 187.68 477.33 189.24" fill="white" fill-opacity="0.7"/>
<path d="M494.03 197.88Q492.06 197.88 490.88 196.56Q489.69 195.24 489.69 192.98L489.69 189.12Q489.69 186.84 490.86 185.52Q492.04 184.20 494.03 184.20Q495.52 184.20 496.49 184.94Q497.46 185.69 497.66 186.96L497.68 186.96L497.63 183.96L497.63 180.12L499.79 180.12L499.79 197.64L497.63 197.64L497.63 195.12L497.61 195.12Q497.44 196.42 496.48 197.15Q495.52 197.88 494.03 197.88M494.75 196.01Q496.10 196.01 496.86 195.17Q497.63 194.33 497.63 192.84L497.63 189.24Q497.63 187.75 496.86 186.91Q496.10 186.07 494.75 186.07Q493.38 186.07 492.62 186.78Q491.85 187.49 491.85 189.12L491.85 192.96Q491.85 194.57 492.62 195.29Q493.38 196.01 494.75 196.01" fill="white" fill-opacity="0.7"/>
<path d="M529.72 197.64L518.44 197.64L518.44 195.67L523.12 195.67L523.12 186.41L518.92 186.41L518.92 184.44L525.28 184.44L525.28 195.67L529.72 195.67L529.72 197.64M523.96 182.06Q523.17 182.06 522.71 181.66Q522.26 181.25 522.26 180.55Q522.26 179.83 522.71 179.41Q523.17 178.99 523.96 178.99Q524.75 178.99 525.21 179.41Q525.66 179.83 525.66 180.55Q525.66 181.25 525.21 181.66Q524.75 182.06 523.96 182.06" fill="white" fill-opacity="0.7"/>
<path d="M537.23 197.88Q535.26 197.88 534.08 196.56Q532.89 195.24 532.89 192.98L532.89 189.12Q532.89 186.84 534.06 185.52Q535.24 184.20 537.23 184.20Q538.72 184.20 539.69 184.94Q540.66 185.69 540.86 186.96L540.88 186.96L540.83 183.96L540.83 180.12L542.99 180.12L542.99 197.64L540.83 197.64L540.83 195.12L540.81 195.12Q540.64 196.42 539.68 197.15Q538.72 197.88 537.23 197.88M537.95 196.01Q539.30 196.01 540.06 195.17Q540.83 194.33 540.83 192.84L540.83 189.24Q540.83 187.75 540.06 186.91Q539.30 186.07 537.95 186.07Q536.58 186.07 535.82 186.78Q535.05 187.49 535.05 189.12L535.05 192.96Q535.05 194.57 535.82 195.29Q536.58 196.01 537.95 196.01" fill="white" fill-opacity="0.7"/>
<path d="M552.40 197.88Q550.07 197.88 548.64 196.48Q547.22 195.07 547.22 192.60L547.22 189.48Q547.22 187.01 548.64 185.60Q550.07 184.20 552.40 184.20Q553.96 184.20 555.12 184.82Q556.29 185.45 556.94 186.58Q557.58 187.70 557.58 189.24L557.58 191.59L549.33 191.59L549.33 192.84Q549.33 194.30 550.17 195.16Q551.01 196.01 552.40 196.01Q553.60 196.01 554.38 195.54Q555.16 195.07 555.33 194.28L557.49 194.28Q557.27 195.94 555.88 196.91Q554.49 197.88 552.40 197.88M549.33 189.24L549.33 189.91L555.47 189.91L555.47 189.24Q555.47 187.68 554.67 186.83Q553.86 185.98 552.40 185.98Q550.94 185.98 550.13 186.83Q549.33 187.68 549.33 189.24" fill="white" fill-opacity="0.7"/>
<path d="M563.97 197.64L561.81 197.64L561.81 184.44L563.97 184.44L563.97 186.96L563.99 186.96Q564.16 185.64 565.07 184.92Q565.98 184.20 567.50 184.20Q569.49 184.20 570.66 185.42Q571.84 186.65 571.84 188.76L571.84 197.64L569.68 197.64L569.68 189.14Q569.68 187.63 568.92 186.83Q568.17 186.02 566.87 186.02Q565.53 186.02 564.75 186.86Q563.97 187.70 563.97 189.24" fill="white" fill-opacity="0.7"/>
<path d="M586.36 197.64L582.52 197.64Q580.89 197.64 579.90 196.69Q578.92 195.74 578.92 194.16L578.92 186.41L575.13 186.41L575.13 184.44L578.92 184.44L578.92 180.72L581.08 180.72L581.08 184.44L586.48 184.44L586.48 186.41L581.08 186.41L581.08 194.16Q581.08 194.83 581.48 195.25Q581.87 195.67 582.52 195.67L586.36 195.67" fill="white" fill-opacity="0.7"/>
<path d="M601.72 197.64L590.44 197.64L590.44 195.67L595.12 195.67L595.12 186.41L590.92 186.41L590.92 184.44L597.28 184.44L597.28 195.67L601.72 195.67L601.72 197.64M595.96 182.06Q595.17 182.06 594.71 181.66Q594.26 181.25 594.26 180.55Q594.26 179.83 594.71 179.41Q595.17 178.99 595.96 178.99Q596.75 178.99 597.21 179.41Q597.66 179.83 597.66 180.55Q597.66 181.25 597.21 181.66Q596.75 182.06 595.96 182.06" fill="white" fill-opacity="0.7"/>
<path d="M610.12 197.64L607.96 197.64L607.96 188.21L604.12 188.21L604.12 186.24L607.96 186.24L607.96 183.48Q607.96 181.92 608.94 181.02Q609.93 180.12 611.66 180.12L615.52 180.12L615.52 182.09L611.66 182.09Q610.12 182.09 610.12 183.48L610.12 186.24L615.52 186.24L615.52 188.21L610.12 188.21" fill="white" fill-opacity="0.7"/>
<path d="M630.52 197.64L619.24 197.64L619.24 195.67L623.92 195.67L623.92 186.41L619.72 186.41L619.72 184.44L626.08 184.44L626.08 195.67L630.52 195.67L630.52 197.64M624.76 182.06Q623.97 182.06 623.51 181.66Q623.06 181.25 623.06 180.55Q623.06 179.83 623.51 179.41Q623.97 178.99 624.76 178.99Q625.55 178.99 626.01 179.41Q626.46 179.83 626.46 180.55Q626.46 181.25 626.01 181.66Q625.55 182.06 624.76 182.06" fill="white" fill-opacity="0.7"/>
<path d="M638.99 197.88Q636.59 197.88 635.15 196.54Q633.71 195.19 633.71 192.84L633.71 189.24Q633.71 186.89 635.15 185.54Q636.59 184.20 638.99 184.20Q641.27 184.20 642.68 185.42Q644.08 186.65 644.15 188.76L641.99 188.76Q641.92 187.49 641.13 186.80Q640.34 186.12 638.99 186.12Q637.58 186.12 636.72 186.92Q635.87 187.73 635.87 189.22L635.87 192.84Q635.87 194.33 636.72 195.14Q637.58 195.96 638.99 195.96Q640.34 195.96 641.13 195.26Q641.92 194.57 641.99 193.32L644.15 193.32Q644.08 195.43 642.68 196.66Q641.27 197.88 638.99 197.88" fill="white" fill-opacity="0.7"/>
<path d="M652.05 197.88Q650.01 197.88 648.81 196.74Q647.61 195.60 647.61 193.75Q647.61 192.53 648.16 191.62Q648.71 190.70 649.70 190.19Q650.68 189.67 651.95 189.67L656.03 189.67L656.03 188.64Q656.03 186.07 653.22 186.07Q651.98 186.07 651.21 186.53Q650.44 186.98 650.39 187.80L648.23 187.80Q648.35 186.24 649.68 185.22Q651.02 184.20 653.22 184.20Q655.62 184.20 656.91 185.35Q658.19 186.50 658.19 188.57L658.19 197.64L656.06 197.64L656.06 195.24L656.01 195.24Q655.82 196.46 654.78 197.17Q653.75 197.88 652.05 197.88M652.58 196.06Q654.16 196.06 655.10 195.29Q656.03 194.52 656.03 193.20L656.03 191.35L652.19 191.35Q651.14 191.35 650.48 191.99Q649.82 192.62 649.82 193.68Q649.82 194.78 650.55 195.42Q651.28 196.06 652.58 196.06" fill="white" fill-opacity="0.7"/>
<path d="M672.76 197.64L668.92 197.64Q667.29 197.64 666.30 196.69Q665.32 195.74 665.32 194.16L665.32 186.41L661.53 186.41L661.53 184.44L665.32 184.44L665.32 180.72L667.48 180.72L667.48 184.44L672.88 184.44L672.88 186.41L667.48 186.41L667.48 194.16Q667.48 194.83 667.88 195.25Q668.27 195.67 668.92 195.67L672.76 195.67" fill="white" fill-opacity="0.7"/>
<path d="M688.12 197.64L676.84 197.64L676.84 195.67L681.52 195.67L681.52 186.41L677.32 186.41L677.32 184.44L683.68 184.44L683.68 195.67L688.12 195.67L688.12 197.64M682.36 182.06Q681.57 182.06 681.11 181.66Q680.66 181.25 680.66 180.55Q680.66 179.83 681.11 179.41Q681.57 178.99 682.36 178.99Q683.15 178.99 683.61 179.41Q684.06 179.83 684.06 180.55Q684.06 181.25 683.61 181.66Q683.15 182.06 682.36 182.06" fill="white" fill-opacity="0.7"/>
<path d="M696.40 197.83Q694.02 197.83 692.62 196.44Q691.22 195.05 691.22 192.55L691.22 189.53Q691.22 187.01 692.61 185.63Q694 184.25 696.40 184.25Q698.80 184.25 700.19 185.63Q701.58 187.01 701.58 189.53L701.58 192.55Q701.58 195.05 700.18 196.44Q698.78 197.83 696.40 197.83M696.40 195.91Q697.82 195.91 698.62 195.12Q699.42 194.33 699.42 192.79L699.42 189.29Q699.42 187.75 698.62 186.96Q697.82 186.17 696.40 186.17Q695.01 186.17 694.19 186.96Q693.38 187.75 693.38 189.29L693.38 192.79Q693.38 194.33 694.19 195.12Q695.01 195.91 696.40 195.91" fill="white" fill-opacity="0.7"/>
<path d="M707.97 197.64L705.81 197.64L705.81 184.44L707.97 184.44L707.97 186.96L707.99 186.96Q708.16 185.64 709.07 184.92Q709.98 184.20 711.50 184.20Q713.49 184.20 714.66 185.42Q715.84 186.65 715.84 188.76L715.84 197.64L713.68 197.64L713.68 189.14Q713.68 187.63 712.92 186.83Q712.17 186.02 710.87 186.02Q709.53 186.02 708.75 186.86Q707.97 187.70 707.97 189.24" fill="white" fill-opacity="0.7"/>
<path d="M739.72 197.64L737.56 197.64L737.56 188.21L733.72 188.21L733.72 186.24L737.56 186.24L737.56 183.48Q737.56 181.92 738.54 181.02Q739.53 180.12 741.26 180.12L745.12 180.12L745.12 182.09L741.26 182.09Q739.72 182.09 739.72 183.48L739.72 186.24L745.12 186.24L745.12 188.21L739.72 188.21" fill="white" fill-opacity="0.7"/>
<path d="M754 197.83Q751.62 197.83 750.22 196.44Q748.82 195.05 748.82 192.55L748.82 189.53Q748.82 187.01 750.21 185.63Q751.60 184.25 754 184.25Q756.40 184.25 757.79 185.63Q759.18 187.01 759.18 189.53L759.18 192.55Q759.18 195.05 757.78 196.44Q756.38 197.83 754 197.83M754 195.91Q755.42 195.91 756.22 195.12Q757.02 194.33 757.02 192.79L757.02 189.29Q757.02 187.75 756.22 186.96Q755.42 186.17 754 186.17Q752.61 186.17 751.79 186.96Q750.98 187.75 750.98 189.29L750.98 192.79Q750.98 194.33 751.79 195.12Q752.61 195.91 754 195.91" fill="white" fill-opacity="0.7"/>
<path d="M766.05 197.64L763.89 197.64L763.89 184.44L766.05 184.44L766.05 186.96L766.10 186.96Q766.26 185.69 767.18 184.94Q768.09 184.20 769.62 184.20Q771.69 184.20 772.80 185.44Q773.92 186.67 773.92 188.95L773.92 190.08L771.76 190.08L771.76 188.95Q771.76 186.07 768.95 186.07Q767.54 186.07 766.79 186.89Q766.05 187.70 766.05 189.24" fill="white" fill-opacity="0.7"/>
<path d="M803.32 197.64L792.04 197.64L792.04 195.67L796.72 195.67L796.72 186.41L792.52 186.41L792.52 184.44L798.88 184.44L798.88 195.67L803.32 195.67L803.32 197.64M797.56 182.06Q796.77 182.06 796.31 181.66Q795.86 181.25 795.86 180.55Q795.86 179.83 796.31 179.41Q796.77 178.99 797.56 178.99Q798.35 178.99 798.81 179.41Q799.26 179.83 799.26 180.55Q799.26 181.25 798.81 181.66Q798.35 182.06 797.56 182.06" fill="white" fill-opacity="0.7"/>
<path d="M807.86 197.64L805.84 197.64L805.84 184.44L807.71 184.44L807.71 186.19L807.76 186.19Q807.88 185.30 808.47 184.75Q809.06 184.20 809.97 184.20Q810.83 184.20 811.43 184.70Q812.03 185.21 812.30 186.07L812.32 186.07Q812.49 185.21 813.08 184.70Q813.66 184.20 814.58 184.20Q815.85 184.20 816.60 185.15Q817.36 186.10 817.36 187.61L817.36 197.64L815.34 197.64L815.34 187.58Q815.34 186.79 814.96 186.32Q814.58 185.86 813.90 185.86Q813.26 185.86 812.87 186.31Q812.49 186.77 812.49 187.56L812.49 197.64L810.71 197.64L810.71 187.58Q810.71 186.79 810.33 186.32Q809.94 185.86 809.30 185.86Q808.62 185.86 808.24 186.31Q807.86 186.77 807.86 187.56" fill="white" fill-opacity="0.7"/>
<path d="M823.17 201.96L821.01 201.96L821.01 184.44L823.17 184.44L823.17 186.96L823.19 186.96Q823.36 185.66 824.32 184.93Q825.28 184.20 826.77 184.20Q828.76 184.20 829.94 185.51Q831.11 186.82 831.11 189.10L831.11 192.96Q831.11 195.24 829.94 196.56Q828.76 197.88 826.77 197.88Q825.28 197.88 824.32 197.14Q823.36 196.39 823.19 195.12L823.12 195.12L823.17 198.12L823.17 201.96M826.05 196.01Q827.42 196.01 828.18 195.29Q828.95 194.57 828.95 192.96L828.95 189.12Q828.95 187.49 828.18 186.78Q827.42 186.07 826.05 186.07Q824.73 186.07 823.95 186.91Q823.17 187.75 823.17 189.24L823.17 192.84Q823.17 194.33 823.95 195.17Q824.73 196.01 826.05 196.01" fill="white" fill-opacity="0.7"/>
<path d="M840.40 197.83Q838.02 197.83 836.62 196.44Q835.22 195.05 835.22 192.55L835.22 189.53Q835.22 187.01 836.61 185.63Q838 184.25 840.40 184.25Q842.80 184.25 844.19 185.63Q845.58 187.01 845.58 189.53L845.58 192.55Q845.58 195.05 844.18 196.44Q842.78 197.83 840.40 197.83M840.40 195.91Q841.82 195.91 842.62 195.12Q843.42 194.33 843.42 192.79L843.42 189.29Q843.42 187.75 842.62 186.96Q841.82 186.17 840.40 186.17Q839.01 186.17 838.19 186.96Q837.38 187.75 837.38 189.29L837.38 192.79Q837.38 194.33 838.19 195.12Q839.01 195.91 840.40 195.91" fill="white" fill-opacity="0.7"/>
<path d="M852.45 197.64L850.29 197.64L850.29 184.44L852.45 184.44L852.45 186.96L852.50 186.96Q852.66 185.69 853.58 184.94Q854.49 184.20 856.02 184.20Q858.09 184.20 859.20 185.44Q860.32 186.67 860.32 188.95L860.32 190.08L858.16 190.08L858.16 188.95Q858.16 186.07 855.35 186.07Q853.94 186.07 853.19 186.89Q852.45 187.70 852.45 189.24" fill="white" fill-opacity="0.7"/>
<path d="M874.36 197.64L870.52 197.64Q868.89 197.64 867.90 196.69Q866.92 195.74 866.92 194.16L866.92 186.41L863.13 186.41L863.13 184.44L866.92 184.44L866.92 180.72L869.08 180.72L869.08 184.44L874.48 184.44L874.48 186.41L869.08 186.41L869.08 194.16Q869.08 194.83 869.48 195.25Q869.87 195.67 870.52 195.67L874.36 195.67" fill="white" fill-opacity="0.7"/>
<path d="M887.44 190.68L879.76 190.68L879.76 188.76L887.44 188.76" fill="white" fill-opacity="0.7"/>
<path d="M898 197.88Q895.67 197.88 894.24 196.48Q892.82 195.07 892.82 192.60L892.82 189.48Q892.82 187.01 894.24 185.60Q895.67 184.20 898 184.20Q899.56 184.20 900.72 184.82Q901.89 185.45 902.54 186.58Q903.18 187.70 903.18 189.24L903.18 191.59L894.93 191.59L894.93 192.84Q894.93 194.30 895.77 195.16Q896.61 196.01 898 196.01Q899.20 196.01 899.98 195.54Q900.76 195.07 900.93 194.28L903.09 194.28Q902.87 195.94 901.48 196.91Q900.09 197.88 898 197.88M894.93 189.24L894.93 189.91L901.07 189.91L901.07 189.24Q901.07 187.68 900.27 186.83Q899.46 185.98 898 185.98Q896.54 185.98 895.73 186.83Q894.93 187.68 894.93 189.24" fill="white" fill-opacity="0.7"/>
<path d="M908.94 197.64L906.40 197.64L911.08 190.85L906.69 184.44L909.23 184.44L911.85 188.52Q912.02 188.78 912.17 189.10Q912.33 189.41 912.42 189.60Q912.50 189.41 912.65 189.10Q912.81 188.78 912.98 188.52L915.59 184.44L918.14 184.44L913.74 190.87L918.40 197.64L915.86 197.64L913.02 193.32Q912.86 193.06 912.70 192.71Q912.54 192.36 912.42 192.14Q912.33 192.36 912.15 192.71Q911.97 193.06 911.78 193.32" fill="white" fill-opacity="0.7"/>
<path d="M923.97 201.96L921.81 201.96L921.81 184.44L923.97 184.44L923.97 186.96L923.99 186.96Q924.16 185.66 925.12 184.93Q926.08 184.20 927.57 184.20Q929.56 184.20 930.74 185.51Q931.91 186.82 931.91 189.10L931.91 192.96Q931.91 195.24 930.74 196.56Q929.56 197.88 927.57 197.88Q926.08 197.88 925.12 197.14Q924.16 196.39 923.99 195.12L923.92 195.12L923.97 198.12L923.97 201.96M926.85 196.01Q928.22 196.01 928.98 195.29Q929.75 194.57 929.75 192.96L929.75 189.12Q929.75 187.49 928.98 186.78Q928.22 186.07 926.85 186.07Q925.53 186.07 924.75 186.91Q923.97 187.75 923.97 189.24L923.97 192.84Q923.97 194.33 924.75 195.17Q925.53 196.01 926.85 196.01" fill="white" fill-opacity="0.7"/>
<path d="M941.20 197.83Q938.82 197.83 937.42 196.44Q936.02 195.05 936.02 192.55L936.02 189.53Q936.02 187.01 937.41 185.63Q938.80 184.25 941.20 184.25Q943.60 184.25 944.99 185.63Q946.38 187.01 946.38 189.53L946.38 192.55Q946.38 195.05 944.98 196.44Q943.58 197.83 941.20 197.83M941.20 195.91Q942.62 195.91 943.42 195.12Q944.22 194.33 944.22 192.79L944.22 189.29Q944.22 187.75 943.42 186.96Q942.62 186.17 941.20 186.17Q939.81 186.17 938.99 186.96Q938.18 187.75 938.18 189.29L938.18 192.79Q938.18 194.33 938.99 195.12Q939.81 195.91 941.20 195.91" fill="white" fill-opacity="0.7"/>
<path d="M953.25 197.64L951.09 197.64L951.09 184.44L953.25 184.44L953.25 186.96L953.30 186.96Q953.46 185.69 954.38 184.94Q955.29 184.20 956.82 184.20Q958.89 184.20 960 185.44Q961.12 186.67 961.12 188.95L961.12 190.08L958.96 190.08L958.96 188.95Q958.96 186.07 956.15 186.07Q954.74 186.07 953.99 186.89Q953.25 187.70 953.25 189.24" fill="white" fill-opacity="0.7"/>
<path d="M975.16 197.64L971.32 197.64Q969.69 197.64 968.70 196.69Q967.72 195.74 967.72 194.16L967.72 186.41L963.93 186.41L963.93 184.44L967.72 184.44L967.72 180.72L969.88 180.72L969.88 184.44L975.28 184.44L975.28 186.41L969.88 186.41L969.88 194.16Q969.88 194.83 970.28 195.25Q970.67 195.67 971.32 195.67L975.16 195.67" fill="white" fill-opacity="0.7"/>
<path d="M999.57 197.88Q998.08 197.88 997.12 197.15Q996.16 196.42 995.99 195.12L995.97 195.12L995.97 197.64L993.81 197.64L993.81 180.12L995.97 180.12L995.97 183.96L995.92 186.96L995.94 186.96Q996.14 185.69 997.11 184.94Q998.08 184.20 999.57 184.20Q1001.56 184.20 1002.74 185.52Q1003.91 186.84 1003.91 189.12L1003.91 192.98Q1003.91 195.24 1002.74 196.56Q1001.56 197.88 999.57 197.88M998.85 196.01Q1000.22 196.01 1000.98 195.29Q1001.75 194.57 1001.75 192.96L1001.75 189.12Q1001.75 187.49 1000.98 186.78Q1000.22 186.07 998.85 186.07Q997.53 186.07 996.75 186.91Q995.97 187.75 995.97 189.24L995.97 192.84Q995.97 194.33 996.75 195.17Q997.53 196.01 998.85 196.01" fill="white" fill-opacity="0.7"/>
<path d="M1013.18 197.88Q1010.90 197.88 1009.53 196.52Q1008.16 195.17 1008.16 192.84L1008.16 184.44L1010.32 184.44L1010.32 192.84Q1010.32 194.28 1011.09 195.13Q1011.86 195.98 1013.18 195.98Q1014.52 195.98 1015.30 195.13Q1016.08 194.28 1016.08 192.84L1016.08 184.44L1018.24 184.44L1018.24 192.84Q1018.24 195.17 1016.85 196.52Q1015.46 197.88 1013.18 197.88" fill="white" fill-opacity="0.7"/>
<path d="M1028.13 197.83L1027.07 197.83Q1024.86 197.83 1023.65 196.84Q1022.44 195.84 1022.44 194.02L1024.60 194.02Q1024.60 194.93 1025.25 195.44Q1025.90 195.96 1027.07 195.96L1028.13 195.96Q1029.33 195.96 1029.99 195.43Q1030.65 194.90 1030.65 193.94Q1030.65 192.24 1029.09 192.02L1025.44 191.50Q1024.10 191.30 1023.35 190.38Q1022.61 189.46 1022.61 187.94Q1022.61 186.22 1023.80 185.23Q1024.98 184.25 1027.07 184.25L1028.13 184.25Q1030.05 184.25 1031.26 185.20Q1032.47 186.14 1032.57 187.68L1030.38 187.68Q1030.34 186.98 1029.72 186.53Q1029.11 186.07 1028.13 186.07L1027.07 186.07Q1025.97 186.07 1025.34 186.58Q1024.72 187.08 1024.72 187.94Q1024.72 189.34 1025.99 189.53L1029.40 190.01Q1032.76 190.49 1032.76 193.94Q1032.76 195.79 1031.55 196.81Q1030.34 197.83 1028.13 197.83" fill="white" fill-opacity="0.7"/>
<path d="M1048.12 197.64L1036.84 197.64L1036.84 195.67L1041.52 195.67L1041.52 186.41L1037.32 186.41L1037.32 184.44L1043.68 184.44L1043.68 195.67L1048.12 195.67L1048.12 197.64M1042.36 182.06Q1041.57 182.06 1041.11 181.66Q1040.66 181.25 1040.66 180.55Q1040.66 179.83 1041.11 179.41Q1041.57 178.99 1042.36 178.99Q1043.15 178.99 1043.61 179.41Q1044.06 179.83 1044.06 180.55Q1044.06 181.25 1043.61 181.66Q1043.15 182.06 1042.36 182.06" fill="white" fill-opacity="0.7"/>
<path d="M1053.57 197.64L1051.41 197.64L1051.41 184.44L1053.57 184.44L1053.57 186.96L1053.59 186.96Q1053.76 185.64 1054.67 184.92Q1055.58 184.20 1057.10 184.20Q1059.09 184.20 1060.26 185.42Q1061.44 186.65 1061.44 188.76L1061.44 197.64L1059.28 197.64L1059.28 189.14Q1059.28 187.63 1058.52 186.83Q1057.77 186.02 1056.47 186.02Q1055.13 186.02 1054.35 186.86Q1053.57 187.70 1053.57 189.24" fill="white" fill-opacity="0.7"/>
<path d="M1070.80 197.88Q1068.47 197.88 1067.04 196.48Q1065.62 195.07 1065.62 192.60L1065.62 189.48Q1065.62 187.01 1067.04 185.60Q1068.47 184.20 1070.80 184.20Q1072.36 184.20 1073.52 184.82Q1074.69 185.45 1075.34 186.58Q1075.98 187.70 1075.98 189.24L1075.98 191.59L1067.73 191.59L1067.73 192.84Q1067.73 194.30 1068.57 195.16Q1069.41 196.01 1070.80 196.01Q1072 196.01 1072.78 195.54Q1073.56 195.07 1073.73 194.28L1075.89 194.28Q1075.67 195.94 1074.28 196.91Q1072.89 197.88 1070.80 197.88M1067.73 189.24L1067.73 189.91L1073.87 189.91L1073.87 189.24Q1073.87 187.68 1073.07 186.83Q1072.26 185.98 1070.80 185.98Q1069.34 185.98 1068.53 186.83Q1067.73 187.68 1067.73 189.24" fill="white" fill-opacity="0.7"/>
<path d="M1085.73 197.83L1084.67 197.83Q1082.46 197.83 1081.25 196.84Q1080.04 195.84 1080.04 194.02L1082.20 194.02Q1082.20 194.93 1082.85 195.44Q1083.50 195.96 1084.67 195.96L1085.73 195.96Q1086.93 195.96 1087.59 195.43Q1088.25 194.90 1088.25 193.94Q1088.25 192.24 1086.69 192.02L1083.04 191.50Q1081.70 191.30 1080.95 190.38Q1080.21 189.46 1080.21 187.94Q1080.21 186.22 1081.40 185.23Q1082.58 184.25 1084.67 184.25L1085.73 184.25Q1087.65 184.25 1088.86 185.20Q1090.07 186.14 1090.17 187.68L1087.98 187.68Q1087.94 186.98 1087.32 186.53Q1086.71 186.07 1085.73 186.07L1084.67 186.07Q1083.57 186.07 1082.94 186.58Q1082.32 187.08 1082.32 187.94Q1082.32 189.34 1083.59 189.53L1087 190.01Q1090.36 190.49 1090.36 193.94Q1090.36 195.79 1089.15 196.81Q1087.94 197.83 1085.73 197.83" fill="white" fill-opacity="0.7"/>
<path d="M1100.13 197.83L1099.07 197.83Q1096.86 197.83 1095.65 196.84Q1094.44 195.84 1094.44 194.02L1096.60 194.02Q1096.60 194.93 1097.25 195.44Q1097.90 195.96 1099.07 195.96L1100.13 195.96Q1101.33 195.96 1101.99 195.43Q1102.65 194.90 1102.65 193.94Q1102.65 192.24 1101.09 192.02L1097.44 191.50Q1096.10 191.30 1095.35 190.38Q1094.61 189.46 1094.61 187.94Q1094.61 186.22 1095.80 185.23Q1096.98 184.25 1099.07 184.25L1100.13 184.25Q1102.05 184.25 1103.26 185.20Q1104.47 186.14 1104.57 187.68L1102.38 187.68Q1102.34 186.98 1101.72 186.53Q1101.11 186.07 1100.13 186.07L1099.07 186.07Q1097.97 186.07 1097.34 186.58Q1096.72 187.08 1096.72 187.94Q1096.72 189.34 1097.99 189.53L1101.40 190.01Q1104.76 190.49 1104.76 193.94Q1104.76 195.79 1103.55 196.81Q1102.34 197.83 1100.13 197.83" fill="white" fill-opacity="0.7"/>
<path d="M1114 197.88Q1111.67 197.88 1110.24 196.48Q1108.82 195.07 1108.82 192.60L1108.82 189.48Q1108.82 187.01 1110.24 185.60Q1111.67 184.20 1114 184.20Q1115.56 184.20 1116.72 184.82Q1117.89 185.45 1118.54 186.58Q1119.18 187.70 1119.18 189.24L1119.18 191.59L1110.93 191.59L1110.93 192.84Q1110.93 194.30 1111.77 195.16Q1112.61 196.01 1114 196.01Q1115.20 196.01 1115.98 195.54Q1116.76 195.07 1116.93 194.28L1119.09 194.28Q1118.87 195.94 1117.48 196.91Q1116.09 197.88 1114 197.88M1110.93 189.24L1110.93 189.91L1117.07 189.91L1117.07 189.24Q1117.07 187.68 1116.27 186.83Q1115.46 185.98 1114 185.98Q1112.54 185.98 1111.73 186.83Q1110.93 187.68 1110.93 189.24" fill="white" fill-opacity="0.7"/>
<path d="M1128.93 197.83L1127.87 197.83Q1125.66 197.83 1124.45 196.84Q1123.24 195.84 1123.24 194.02L1125.40 194.02Q1125.40 194.93 1126.05 195.44Q1126.70 195.96 1127.87 195.96L1128.93 195.96Q1130.13 195.96 1130.79 195.43Q1131.45 194.90 1131.45 193.94Q1131.45 192.24 1129.89 192.02L1126.24 191.50Q1124.90 191.30 1124.15 190.38Q1123.41 189.46 1123.41 187.94Q1123.41 186.22 1124.60 185.23Q1125.78 184.25 1127.87 184.25L1128.93 184.25Q1130.85 184.25 1132.06 185.20Q1133.27 186.14 1133.37 187.68L1131.18 187.68Q1131.14 186.98 1130.52 186.53Q1129.91 186.07 1128.93 186.07L1127.87 186.07Q1126.77 186.07 1126.14 186.58Q1125.52 187.08 1125.52 187.94Q1125.52 189.34 1126.79 189.53L1130.20 190.01Q1133.56 190.49 1133.56 193.94Q1133.56 195.79 1132.35 196.81Q1131.14 197.83 1128.93 197.83" fill="white" fill-opacity="0.7"/>
<path d="M1142.80 197.88Q1141.91 197.88 1141.37 197.35Q1140.83 196.82 1140.83 195.98Q1140.83 195.10 1141.37 194.54Q1141.91 193.99 1142.80 193.99Q1143.69 193.99 1144.23 194.54Q1144.77 195.10 1144.77 195.98Q1144.77 196.82 1144.23 197.35Q1143.69 197.88 1142.80 197.88" fill="white" fill-opacity="0.7"/>
<path d="M76.11 136.06L66.42 136.06L84.56 65.98L97.14 65.98L115.18 136.06L105.49 136.06L101.07 117.82L80.53 117.82L76.11 136.06M87.54 88.92L82.45 109.95L99.15 109.95L94.16 89.02Q92.72 83.26 91.86 79.23Q90.99 75.20 90.80 73.76Q90.61 75.20 89.74 79.23Q88.88 83.26 87.54 88.92M137.55 136.06L128.05 136.06L128.05 65.98L150.80 65.98Q157.52 65.98 162.42 68.57Q167.31 71.16 170 75.82Q172.69 80.48 172.69 86.91Q172.69 93.24 170 97.90Q167.31 102.56 162.37 105.15Q157.42 107.74 150.80 107.74L137.55 107.74L137.55 136.06M137.55 74.43L137.55 99.29L150.80 99.29Q156.37 99.29 159.63 95.88Q162.90 92.48 162.90 86.91Q162.90 81.24 159.63 77.84Q156.37 74.43 150.80 74.43L137.55 74.43M225.10 136.06L186.90 136.06L186.90 127.42L201.20 127.42L201.20 74.62L186.90 74.62L186.90 65.98L225.10 65.98L225.10 74.62L210.80 74.62L210.80 127.42L225.10 127.42L225.10 136.06M263.98 137.02Q253.62 137.02 247.47 131.60Q241.33 126.17 241.33 116.67L250.83 116.67Q250.83 122.24 254.38 125.40Q257.94 128.57 263.98 128.57Q269.74 128.57 273.15 125.36Q276.56 122.14 276.56 116.76Q276.56 112.73 274.35 109.71Q272.14 106.68 268.11 105.63L257.74 102.84Q250.93 100.92 246.94 95.88Q242.96 90.84 242.96 83.93Q242.96 78.27 245.50 74Q248.05 69.72 252.66 67.37Q257.26 65.02 263.31 65.02Q269.46 65.02 274.11 67.37Q278.77 69.72 281.36 73.95Q283.95 78.17 283.95 83.74L274.54 83.74Q274.54 79.13 271.42 76.25Q268.30 73.37 263.31 73.37Q258.32 73.37 255.30 76.25Q252.27 79.13 252.27 83.74Q252.27 87.48 254.29 90.03Q256.30 92.57 259.95 93.63L270.61 96.51Q277.81 98.43 281.84 103.85Q285.87 109.28 285.87 116.76Q285.87 122.91 283.18 127.47Q280.50 132.03 275.55 134.52Q270.61 137.02 263.98 137.02M342.51 136.06L301.71 136.06L301.71 65.98L342.51 65.98L342.51 74.52L311.12 74.52L311.12 95.36L339.15 95.36L339.15 103.61L311.12 103.61L311.12 127.52L342.51 127.52L342.51 136.06M383.60 136.06L374.10 136.06L374.10 74.62L355.09 74.62L355.09 65.98L402.51 65.98L402.51 74.62L383.60 74.62L383.60 136.06M436.40 137.02Q426.51 137.02 421.18 131.55Q415.86 126.08 415.86 116.67L415.86 65.98L425.36 65.98L425.36 116.67Q425.36 122.24 428.10 125.40Q430.83 128.57 436.40 128.57Q441.87 128.57 444.70 125.40Q447.54 122.24 447.54 116.67L447.54 65.98L457.04 65.98L457.04 116.67Q457.04 126.17 451.71 131.60Q446.38 137.02 436.40 137.02M551.98 137.02Q542.29 137.02 536.58 131.60Q530.86 126.17 530.86 116.67L530.86 85.28Q530.86 75.87 536.58 70.44Q542.29 65.02 551.98 65.02Q561.58 65.02 567.30 70.49Q573.01 75.96 573.01 85.28L563.50 85.28Q563.50 79.61 560.43 76.54Q557.36 73.47 551.98 73.47Q546.51 73.47 543.44 76.54Q540.37 79.61 540.37 85.28L540.37 116.67Q540.37 122.43 543.44 125.50Q546.51 128.57 551.98 128.57Q557.36 128.57 560.43 125.50Q563.50 122.43 563.50 116.67L563.50 107.55L549.87 107.55L549.87 99.10L573.01 99.10L573.01 116.67Q573.01 126.08 567.30 131.55Q561.58 137.02 551.98 137.02M609.20 137.02Q599.60 137.02 594.03 131.45Q588.46 125.88 588.46 115.71L588.46 86.24Q588.46 76.16 594.03 70.59Q599.60 65.02 609.20 65.02Q618.80 65.02 624.37 70.54Q629.94 76.06 629.94 86.24L629.94 115.71Q629.94 125.88 624.37 131.45Q618.80 137.02 609.20 137.02M609.20 128.57Q614.58 128.57 617.50 125.50Q620.43 122.43 620.43 116.67L620.43 85.28Q620.43 79.61 617.55 76.54Q614.67 73.47 609.20 73.47Q603.73 73.47 600.85 76.54Q597.97 79.61 597.97 85.28L597.97 116.67Q597.97 122.43 600.90 125.50Q603.82 128.57 609.20 128.57M673.14 136.06L660.37 136.06L642.42 65.98L652.21 65.98L663.82 113.21Q664.98 117.72 665.79 121.90Q666.61 126.08 666.99 128.28Q667.28 126.08 668.19 121.85Q669.10 117.63 670.16 113.12L681.39 65.98L691.18 65.98L673.14 136.06M780.46 136.06L761.65 136.06L761.65 65.98L780.46 65.98Q787.28 65.98 792.32 68.62Q797.36 71.26 800.14 76.01Q802.93 80.76 802.93 87.20L802.93 114.75Q802.93 121.18 800.14 125.98Q797.36 130.78 792.32 133.42Q787.28 136.06 780.46 136.06M771.15 74.43L771.15 127.61L780.46 127.61Q786.51 127.61 789.97 124.16Q793.42 120.70 793.42 114.75L793.42 87.20Q793.42 81.24 789.97 77.84Q786.51 74.43 780.46 74.43L771.15 74.43M839.98 137.02Q830.29 137.02 824.58 131.60Q818.86 126.17 818.86 116.67L818.86 85.28Q818.86 75.87 824.58 70.44Q830.29 65.02 839.98 65.02Q849.58 65.02 855.30 70.49Q861.01 75.96 861.01 85.28L851.50 85.28Q851.50 79.61 848.43 76.54Q845.36 73.47 839.98 73.47Q834.51 73.47 831.44 76.54Q828.37 79.61 828.37 85.28L828.37 116.67Q828.37 122.43 831.44 125.50Q834.51 128.57 839.98 128.57Q845.36 128.57 848.43 125.50Q851.50 122.43 851.50 116.67L851.50 107.55L837.87 107.55L837.87 99.10L861.01 99.10L861.01 116.67Q861.01 126.08 855.30 131.55Q849.58 137.02 839.98 137.02M886.64 136.06L877.14 136.06L877.14 65.98L918.99 65.98L918.99 74.72L886.45 74.72L886.45 96.80L916.50 96.80L916.50 105.44L886.64 105.44L886.64 136.06M959.60 136.06L950.10 136.06L950.10 74.62L931.09 74.62L931.09 65.98L978.51 65.98L978.51 74.62L959.60 74.62" fill="url(#paint2_linear_0_1)"/>
<g id="Group 1">
<rect id="Rectangle 1" x="26" y="168" width="12" height="184" rx="5" fill="url(#paint3_linear_0_1)" fill-opacity="0.9"/>
</g>
<g id="Group 1_2">
<rect id="Rectangle 2" x="26" y="38" width="12" height="119" rx="5" fill="url(#paint4_linear_0_1)" fill-opacity="0.9"/>
</g>
<ellipse id="Ellipse 1" cx="148.5" cy="573" rx="215.5" ry="214" fill="url(#paint5_linear_0_1)" fill-opacity="0.4"/>
<rect id="Rectangle 3" x="1229" y="48" width="300" height="300" rx="25" fill="#FFFBFB" fill-opacity="0.9"/>
<g id="placeholder-logo"><g transform="translate(1229,48) translate(0.0,60.0) scale(1.2000)"><g fill="#666666">
  <path d="m88.05,27.65c-3.15,4 -3.2,51.2 -0.05,54.35c2.75,2.75 71.7,3.15 74.45,0.45c2.85,-2.9 2.3,-53.85 -0.65,-55.9c-1.95,-1.35 -7.15,-1.55 -36.95,-1.55l-34.7,0l-2.1,2.65zm69.45,3.35c0.65,0 1,8.6 1,23.75l0,23.75l-33,0l-33,0l-0.25,-23c-0.15,-12.6 -0.1,-23.45 0.15,-24.1c0.35,-0.85 8.9,-1.05 32.25,-0.75c17.55,0.2 32.3,0.35 32.85,0.35z"/>
  <path d="m99.15,37.3c-6.85,7.35 4.25,17.35 11.4,10.25c1.35,-1.35 2.45,-3.65 2.45,-5.05c0,-6.45 -9.35,-9.95 -13.85,-5.2z"/>
  <path d="m135,42.5c-0.7,0.85 -5.25,5.15 -10.1,9.6l-8.85,8.1l-3.2,-3.2l-3.15,-3.15l-6.35,6.3c-5.55,5.5 -6.35,6.75 -6.35,10.05l0,3.8l28.5,0l28.5,0l0,-8.6l0,-8.55l-8.15,-7.7c-9.35,-8.85 -9.15,-8.7 -10.85,-6.65zm7.25,15.2c0.95,0.9 1.75,2.9 1.75,4.45c6.35,-5.05 4.75,-7.15 4.9,-11.55c0.95,0 0,0 0,0l-6.65,7.1z"/>
  <path d="m53.65,110.75c0.1,4.8 0.45,8.65 0.75,8.5c0.35,-0.15 1.3,-0.25 2.1,-0.25c1.1,0 1.5,-1.2 1.5,-4.75l0,-4.75l3.25,5c4.9,7.5 6.2,6.75 6.55,-3.75c0.25,-8.15 0.15,-8.75 -1.7,-8.75c-1.65,0 -2.05,0.8 -2.3,4.75l-0.3,4.75l-2.8,-4.75c-4.85,-8.25 -7.25,-6.9 -7.05,4z"/>
  <path d="m91,108.9c0,9.65 0.3,10.1 6.1,10.1c5.8,0 7.15,-2.65 1.65,-3.2l-3.25,-0.3l-0.3,-6.75c-0.25,-5.95 -0.55,-6.75 -2.25,-6.75c-1.75,0 -1.95,0.7 -1.95,6.9z"/>
  <path d="m151,102.45c0,0.25 1,2.15 2.25,4.2c1.2,2.1 2.45,5.8 2.75,8.25c0.65,5.9 4,6.95 4,1.25c0.05,-2.1 1.25,-5.85 2.95,-8.9l2.9,-5.25l-2.5,0c-1.8,0 -2.8,0.85 -3.75,3.1l-1.3,3.05l-1.25,-3.05c-1.1,-2.6 -6.05,-4.8 -6.05,-2.65z"/>
  <path d="m191,107.45c0,9.05 3.4,8.85 4.25,-0.2c0.45,-5 0.35,-5.25 -1.9,-5.25c-2.2,0 -2.35,0.4 -2.35,5.45z"/>
  <path d="m180.8,104.75c-1.3,5.35 0.65,13.6 3.45,14.35c2.3,0.6 2.75,0.4 2.75,-1.2c0,-1.05 -0.45,-1.9 -1,-1.9c-0.55,0 -1,-1.6 -1,-3.5c0,-1.95 0.45,-3.5 1,-3.5c0.55,0 1,-0.7 1,-1.5c0,-0.85 -0.45,-1.5 -1,-1.5c-0.55,0 -1,-0.7 -1,-1.5c0,-2.1 -3.65,-1.9 -4.2,0.25z"/>
  <path d="m71.55,106.55c-2.2,2.25 -2.05,9.7 0.3,11.8c4.5,4.1 10.15,0.75 10.15,-6.1c0,-4.85 -2,-7.25 -6,-7.25c-1.55,0 -3.55,0.7 -4.45,1.55zm6.25,5.8c0.25,3.05 0,3.65 -1.6,3.65c-2.3,0 -3.25,-2.65 -2.05,-5.85c1.25,-3.35 3.3,-2.1 3.65,2.2z"/>
  <path d="m105.75,106.1c-2.5,1.45 -2.45,9.95 0.1,12.25c4.3,3.9 10.15,0.35 10.15,-6.2c0,-6 -5.15,-9.05 -10.25,-6.05zm6.05,6.25c0.25,3.05 0,3.65 -1.6,3.65c-2.3,0 -3.25,-2.65 -2.05,-5.85c1.25,-3.35 3.3,-2.1 3.65,2.2z"/>
  <path d="m119.2,106.2c-3.8,3.8 -0.4,12.55 4.4,11.35c1.9,-0.45 2.45,-0.3 2.15,0.65c-0.25,0.7 -1.55,1.2 -2.85,1.1c-4.05,-0.3 -5.35,0.45 -3.85,2.25c0.85,1.05 2.6,1.45 5.35,1.25l4.1,-0.3l0.3,-8.75l0.3,-8.75l-4.35,0c-2.4,0 -4.9,0.55 -5.55,1.2zm6.6,4.45c0.4,2.85 -2.15,4.85 -3.75,2.95c-0.9,-1.1 -0.9,-2 -0.05,-3.6c1.35,-2.5 3.4,-2.15 3.8,0.65z"/>
  <path d="m133.55,106.55c-2.2,2.25 -2.05,9.7 0.3,11.8c4.5,4.1 10.15,0.75 10.15,-6.1c0,-4.85 -2,-7.25 -6,-7.25c-1.55,0 -3.55,0.7 -4.45,1.55zm6.25,5.8c0.25,3.05 0,3.65 -1.6,3.65c-2.3,0 -3.25,-2.65 -2.05,-5.85c1.25,-3.35 3.3,-2.1 3.65,2.2z"/>
  <path d="m167.65,106.85c-3.9,4.3 -0.75,13.15 4.7,13.15c2.4,0 5.65,-2.75 5.65,-4.85c0,-1.4 -2.65,-1.55 -3.5,-0.15c-0.95,1.55 -4.5,1.15 -4.5,-0.5c0,-1.1 1.1,-1.5 4,-1.5c3.15,0 4,-0.35 4,-1.8c0,-5.3 -6.85,-8.25 -10.35,-4.35z"/>
  <path d="m191,117.5c0,2.15 0.4,2.6 2.25,2.3c1.5,-0.2 2.25,-1 2.25,-2.3c0,-1.3 -0.75,-2.1 -2.25,-2.3c-1.85,-0.3 -2.25,0.15 -2.25,2.3z"/>
 </g></g></g>
</g>
<defs>
<linearGradient id="paint0_linear_0_1" x1="0" y1="198" x2="1584" y2="198" gradientUnits="userSpaceOnUse">
<stop stop-color="#3D052C"/>
<stop offset="1"/>
</linearGradient>
<linearGradient id="paint1_linear_0_1" x1="323" y1="-224" x2="323" y2="352" gradientUnits="userSpaceOnUse">
<stop stop-color="#28F6F2" stop-opacity="0.4"/>
<stop offset="1" stop-color="#17908E" stop-opacity="0.7"/>
</linearGradient>
<linearGradient id="paint2_linear_0_1" x1="148.5" y1="38" x2="148.5" y2="140" gradientUnits="userSpaceOnUse">
<stop stop-color="white"/>
<stop offset="1" stop-color="#999999"/>
</linearGradient>
<linearGradient id="paint3_linear_0_1" x1="38" y1="260" x2="26" y2="260" gradientUnits="userSpaceOnUse">
<stop stop-color="#D9D9D9"/>
<stop offset="1" stop-color="#737373"/>
</linearGradient>
<linearGradient id="paint4_linear_0_1" x1="38" y1="97.5" x2="26" y2="97.5" gradientUnits="userSpaceOnUse">
<stop stop-color="#D9D9D9"/>
<stop offset="1" stop-color="#737373"/>
</linearGradient>
<linearGradient id="paint5_linear_0_1" x1="27.5" y1="434.5" x2="148.5" y2="787" gradientUnits="userSpaceOnUse">
<stop stop-color="#2E21BC"/>
<stop offset="1" stop-color="#150F56"/>
</linearGradient>
<clipPath id="clip0_0_1">
<rect width="1584" height="396" fill="white"/>
</clipPath>
</defs>
</svg>
